<svg width="19" height="11" viewBox="0 0 19 11" fill="none" xmlns="http://www.w3.org/2000/svg">
<path d="M18.5818 0.420637C18.3139 0.151302 17.9507 -1.81561e-06 17.5719 -1.7825e-06C17.1931 -1.74939e-06 16.8299 0.151303 16.562 0.420637L9.49138 7.53218L2.42074 0.420639C2.15134 0.158937 1.79052 0.0141283 1.416 0.0174013C1.04147 0.0206753 0.683209 0.171768 0.41837 0.43814C0.153531 0.70451 0.00330838 1.06485 5.44775e-05 1.44154C-0.00319943 1.81823 0.140777 2.18114 0.400972 2.4521L8.48149 10.5794C8.74936 10.8487 9.11261 11 9.49138 11C9.87014 11 10.2334 10.8487 10.5013 10.5794L18.5818 2.45209C18.8496 2.18268 19 1.81732 19 1.43637C19 1.05541 18.8496 0.690053 18.5818 0.420637Z" fill="#140401"/>
</svg>
