<svg width="11" height="19" viewBox="0 0 11 19" fill="none" xmlns="http://www.w3.org/2000/svg">
<path id="Vector" d="M10.5794 18.5818C10.8487 18.3139 11 17.9507 11 17.5719C11 17.1931 10.8487 16.8299 10.5794 16.562L3.46782 9.49138L10.5794 2.42075C10.8411 2.15134 10.9859 1.79052 10.9826 1.416C10.9793 1.04147 10.8282 0.68321 10.5619 0.418371C10.2955 0.153532 9.93515 0.0033094 9.55846 5.48953e-05C9.18177 -0.00319961 8.81886 0.140776 8.54791 0.400972L0.420638 8.48149C0.151303 8.74936 -4.32191e-07 9.11261 -4.15635e-07 9.49138C-3.99079e-07 9.87014 0.151303 10.2334 0.420638 10.5013L8.54791 18.5818C8.81732 18.8496 9.18268 19 9.56363 19C9.94459 19 10.3099 18.8496 10.5794 18.5818Z" fill="white"/>
</svg>
