<svg width="50" height="50" viewBox="0 0 50 50" fill="none" xmlns="http://www.w3.org/2000/svg">
<rect x="0.5" y="0.5" width="49" height="49" rx="24.5" stroke="#D3C740"/>
<path d="M19.47 18.0005C19.4697 18.5309 19.2587 19.0395 18.8835 19.4144C18.5082 19.7893 17.9994 19.9998 17.469 19.9995C16.9385 19.9992 16.4299 19.7883 16.0551 19.413C15.6802 19.0378 15.4697 18.5289 15.47 17.9985C15.4702 17.4681 15.6812 16.9595 16.0565 16.5846C16.4317 16.2097 16.9405 15.9992 17.471 15.9995C18.0014 15.9998 18.51 16.2107 18.8849 16.586C19.2598 16.9613 19.4702 17.4701 19.47 18.0005ZM19.53 21.4805H15.53V34.0005H19.53V21.4805ZM25.85 21.4805H21.87V34.0005H25.81V27.4305C25.81 23.7705 30.58 23.4305 30.58 27.4305V34.0005H34.53V26.0705C34.53 19.9005 27.47 20.1305 25.81 23.1605L25.85 21.4805Z" fill="#D3C740"/>
</svg>
