<svg width="18" height="18" viewBox="0 0 18 18" fill="none" xmlns="http://www.w3.org/2000/svg">
<path d="M15.75 6.75H11.25V2.25C11.25 1.65326 11.0129 1.08097 10.591 0.65901C10.169 0.237053 9.59674 0 9 0C8.40326 0 7.83097 0.237053 7.40901 0.65901C6.98705 1.08097 6.75 1.65326 6.75 2.25L6.82987 6.75H2.25C1.65326 6.75 1.08097 6.98705 0.65901 7.40901C0.237053 7.83097 0 8.40326 0 9C0 9.59674 0.237053 10.169 0.65901 10.591C1.08097 11.0129 1.65326 11.25 2.25 11.25L6.82987 11.1701L6.75 15.75C6.75 16.3467 6.98705 16.919 7.40901 17.341C7.83097 17.7629 8.40326 18 9 18C9.59674 18 10.169 17.7629 10.591 17.341C11.0129 16.919 11.25 16.3467 11.25 15.75V11.1701L15.75 11.25C16.3467 11.25 16.919 11.0129 17.341 10.591C17.7629 10.169 18 9.59674 18 9C18 8.40326 17.7629 7.83097 17.341 7.40901C16.919 6.98705 16.3467 6.75 15.75 6.75Z" fill="white"/>
</svg>
