<svg width="11" height="19" viewBox="0 0 11 19" fill="none" xmlns="http://www.w3.org/2000/svg">
<path id="Vector" d="M0.420637 0.418219C0.151302 0.686085 -1.95322e-06 1.04934 -1.96977e-06 1.4281C-1.98633e-06 1.80687 0.151302 2.17012 0.420637 2.43799L7.53217 9.50862L0.420636 16.5793C0.158935 16.8487 0.014126 17.2095 0.017399 17.584C0.020673 17.9585 0.171765 18.3168 0.438137 18.5816C0.704508 18.8465 1.06484 18.9967 1.44154 18.9999C1.81823 19.0032 2.18113 18.8592 2.45209 18.599L10.5794 10.5185C10.8487 10.2506 11 9.88739 11 9.50862C11 9.12986 10.8487 8.7666 10.5794 8.49874L2.45209 0.418219C2.18268 0.150433 1.81732 -4.01388e-07 1.43637 -4.1804e-07C1.05541 -4.34692e-07 0.690053 0.150433 0.420637 0.418219Z" fill="white"/>
</svg>
