<svg width="50" height="50" viewBox="0 0 50 50" fill="none" xmlns="http://www.w3.org/2000/svg">
<rect x="0.5" y="0.5" width="49" height="49" rx="24.5" stroke="#D3C740"/>
<path d="M16.5706 23.8741C21.8172 21.5881 25.3162 20.0807 27.0676 19.3521C32.0666 17.2731 33.1046 16.9121 33.7816 16.9001C33.9316 16.8971 34.2636 16.9341 34.4796 17.1101C34.6616 17.2571 34.7116 17.4571 34.7356 17.5971C34.7596 17.7371 34.7896 18.0561 34.7656 18.3051C34.4956 21.1521 33.3226 28.0591 32.7256 31.2471C32.4736 32.5951 31.9776 33.0471 31.4956 33.0921C30.4506 33.1881 29.6576 32.4021 28.6456 31.7381C27.0606 30.6991 26.1656 30.0521 24.6276 29.0391C22.8506 27.8681 24.0026 27.2241 25.0156 26.1721C25.2806 25.8971 29.8856 21.7081 29.9756 21.3281C29.9856 21.2801 29.9966 21.1031 29.8916 21.0101C29.7866 20.9161 29.6316 20.9481 29.5186 20.9741C29.3592 21.0101 26.8286 22.6827 21.9266 25.9921C21.2072 26.4854 20.5566 26.7257 19.9746 26.7131C19.3316 26.6991 18.0946 26.3501 17.1766 26.0511C16.0486 25.6841 15.1526 25.4911 15.2306 24.8681C15.2712 24.5441 15.7179 24.2127 16.5706 23.8741Z" fill="#D3C740"/>
</svg>
